<?xml version="1.0" encoding="UTF-8" standalone="no"?>
<svg xmlns="http://www.w3.org/2000/svg" viewBox="0 0 603 182" width="603" height="182">
  <path d="M374.2,142.4c-34.8,25.7-85.2,39.3-128.6,39.3c-60.9,0-115.7-22.5-157.2-59.9c-3.3-2.9-0.3-6.9,3.6-4.6  c45.2,26.3,101.1,42.2,158.8,42.2c38.9,0,81.7-8.1,121.2-24.7C377.5,132,380.9,137.5,374.2,142.4"/>
  <path d="M388.2,126.3c-4.4-5.7-29.3-2.7-40.4-1.4c-3.4,0.4-3.9-2.6-0.9-4.8c19.8-13.9,52.2-9.9,56-5.2  c3.8,4.7-1,37.3-19.6,52.9c-2.9,2.4-5.6,1.1-4.3-2.1C384.2,154.2,392.6,132,388.2,126.3"/>
  <path d="M348.9,20.2v-14c0-2.1,1.6-3.5,3.5-3.5h62.3c2,0,3.6,1.4,3.6,3.5v12c0,2-1.7,4.6-4.7,8.7l-32.3,46.1  c12,0.3,24.6,1.5,35.4,7.5c2.4,1.3,3.1,3.3,3.3,5.2v15c0,2-2.1,4.2-4.3,3c-18.1-9.5-42-10.5-62-0.1c-2,1.1-4.1-1.1-4.1-3.1  v-14.3c0-2.2,0-5.9,2.2-9.2l37.4-53.7h-32.5C350.6,23.8,348.9,22.3,348.9,20.2"/>
  <path d="M124.9,105.3h-19c-1.8-0.1-3.3-1.5-3.4-3.2V9.6c0-1.9,1.6-3.5,3.6-3.5h17.7c1.8,0.1,3.3,1.5,3.4,3.3v12.1  h0.3c4.6-12.3,13.3-18.1,25-18.1c11.9,0,19.3,5.8,24.7,18.1c4.6-12.3,15.1-18.1,26.3-18.1c8,0,16.7,3.3,22.1,10.6  c6,8.1,4.8,19.8,4.8,30.1l0,60.6c0,1.9-1.6,3.5-3.6,3.5h-19c-1.9-0.1-3.4-1.7-3.4-3.5V52.4c0-4.2,0.4-14.6-0.5-18.5  c-1.4-6.6-5.7-8.5-11.2-8.5c-4.6,0-9.4,3.1-11.4,8c-2,4.9-1.8,13.2-1.8,19.1v49.3c0,1.9-1.6,3.5-3.6,3.5h-19  c-1.9-0.1-3.4-1.7-3.4-3.5V52.4c0-11,1.8-27.2-11.7-27.2c-13.6,0-13.1,16.2-13.1,27.2v49.3C128.5,103.7,126.9,105.3,124.9,105.3"/>
  <path d="M433.6,56c0,7.5,0.2,13.8-3.6,20.4c-3.1,5.5-8,8.8-13.4,8.8c-7.5,0-11.8-5.7-11.8-14.1  c0-16.6,14.9-19.6,29-19.6V56z M453.5,105c-1.3,1.1-3.1,1.2-4.5,0.4c-6.3-5.3-7.5-7.7-11-12.7c-10.5,10.7-18,14-31.7,14  c-16.2,0-28.8-10-28.8-30c0-15.6,8.5-26.3,20.6-31.5c10.5-4.6,25.2-5.4,36.4-6.7V35c0-4.6,0.4-10-2.3-14c-2.3-3.6-6.8-5.1-10.7-5.1  c-7.3,0-13.8,3.7-15.4,11.5c-0.3,1.7-1.6,3.3-3.3,3.4l-18.4-2c-1.6-0.3-3.3-1.8-2.9-4.5C385.1,2.4,405.4,0,423.4,0  c9.1,0,20.9,2.4,28.1,9.3c9.1,8.5,8.2,19.8,8.2,32.1v29.1c0,8.7,3.6,12.6,7,17.3c1.2,1.7,1.5,3.7-0.1,4.9c-3.9,3.3-10.9,9.4-14.8,12.8  L453.5,105z"/>
  <path d="M485.8,105.3h-19c-1.9-0.1-3.4-1.7-3.4-3.5V9.5c0.2-1.8,1.8-3.2,3.7-3.2h17.7c1.7,0.1,3.1,1.2,3.4,2.8v14.3  h0.4c5.3-13.4,12.9-19.8,26.1-19.8c8.6,0,16.9,3.1,22.2,11.6c5,7.9,5,21.1,5,30.6v61.3c-0.2,1.8-1.8,3.2-3.7,3.2h-19.2  c-1.7-0.1-3.2-1.4-3.4-3.1V52.6c0-10.8,1.2-26.6-12.1-26.6c-4.7,0-9,3.1-11.2,7.9c-2.7,6.1-3.1,12.1-3.1,18.7v49.3  C489.4,103.7,487.8,105.3,485.8,105.3"/>
  <path fill="#FF9900" d="M217.5,143.6c-26.3,19.4-64.5,29.7-97.4,29.7c-46.1,0-87.6-17-118.9-45.4  c-2.5-2.2-0.3-5.2,2.7-3.5c34.2,19.9,76.5,31.9,120.1,31.9c29.4,0,61.8-6.1,91.6-18.7C220.5,135.6,222.9,139.8,217.5,143.6"/>
  <path fill="#FF9900" d="M228.5,131.2c-3.4-4.3-22.2-2-30.6-1c-2.6,0.3-3-1.9-0.7-3.6c15-10.5,39.5-7.5,42.3-4  c2.9,3.6-0.8,28.2-14.8,40c-2.2,1.8-4.2,0.9-3.3-1.6C224.7,152.4,231.8,135.5,228.5,131.2"/>
</svg>